<?xml version="1.0" encoding="UTF-8" standalone="no"?>
<!-- Created with Inkscape (http://www.inkscape.org/) -->

<svg
   width="19.172905mm"
   height="18.43297mm"
   viewBox="0 0 19.172905 18.43297"
   version="1.1"
   id="svg403"
   inkscape:version="1.2.2 (b0a8486541, 2022-12-01)"
   sodipodi:docname="star.svg"
   xmlns:inkscape="http://www.inkscape.org/namespaces/inkscape"
   xmlns:sodipodi="http://sodipodi.sourceforge.net/DTD/sodipodi-0.dtd"
   xmlns="http://www.w3.org/2000/svg"
   xmlns:svg="http://www.w3.org/2000/svg">
  <sodipodi:namedview
     id="namedview405"
     pagecolor="#ffffff"
     bordercolor="#000000"
     borderopacity="0.25"
     inkscape:showpageshadow="2"
     inkscape:pageopacity="0.0"
     inkscape:pagecheckerboard="0"
     inkscape:deskcolor="#d1d1d1"
     inkscape:document-units="mm"
     showgrid="false"
     inkscape:zoom="5.2952301"
     inkscape:cx="36.164623"
     inkscape:cy="51.839107"
     inkscape:window-width="1432"
     inkscape:window-height="928"
     inkscape:window-x="96"
     inkscape:window-y="145"
     inkscape:window-maximized="0"
     inkscape:current-layer="svg403" />
  <defs
     id="defs400" />
  <g
     id="g3864"
     transform="matrix(0.26458333,0,0,0.26458333,-75.351772,9.8015114)">
    <path
       inkscape:connector-curvature="0"
       id="path2402"
       d="m 321.2812,-32.044976 c -2.33251,-0.01491 -8.81503,16.964657 -10.71875,18.3125 -1.88683,1.335882 -19.89656,1.712151 -20.625,3.9062502 -0.73496,2.213744 13.36891,13.616698 14.0625,15.84375 0.68744,2.207289 -4.51786,19.4729488 -2.65625,20.8437498 1.87828,1.383075 17.10512,-8.52855 19.4375,-8.5 2.31169,0.0283 17.12102,10.315647 19,8.96875 1.8958,-1.358957 -2.8104,-18.8843428 -2.0625,-21.0937498 0.74126,-2.1898 15.10659,-13.109271 14.40625,-15.3125 -0.70661,-2.2229562 -18.84859,-3.1372112 -20.71875,-4.5312502 -1.85356,-1.381668 -7.81319,-18.422726 -10.125,-18.4375 z"
       style="fill:#ffe16b;fill-opacity:1;fill-rule:evenodd;stroke:#433e1b;stroke-width:10;stroke-linecap:round;stroke-linejoin:round;stroke-miterlimit:4;stroke-dasharray:none;stroke-opacity:1" />
    <path
       style="fill:#ffe16b;fill-opacity:1;fill-rule:evenodd;stroke:none"
       d="m 321.2812,-32.044976 c -2.33251,-0.01491 -8.81503,16.964657 -10.71875,18.3125 -1.88683,1.335882 -19.89656,1.712151 -20.625,3.9062502 -0.73496,2.213744 13.36891,13.616698 14.0625,15.84375 0.68744,2.207289 -4.51786,19.4729488 -2.65625,20.8437498 1.87828,1.383075 17.10512,-8.52855 19.4375,-8.5 2.31169,0.0283 17.12102,10.315647 19,8.96875 1.8958,-1.358957 -2.8104,-18.8843428 -2.0625,-21.0937498 0.74126,-2.1898 15.10659,-13.109271 14.40625,-15.3125 -0.70661,-2.2229562 -18.84859,-3.1372112 -20.71875,-4.5312502 -1.85356,-1.381668 -7.81319,-18.422726 -10.125,-18.4375 z"
       id="path3839-3"
       inkscape:connector-curvature="0" />
    <path
       id="path3856-6"
       transform="translate(-0.43750063,-17.125206)"
       d="m 321.71875,-14.90625 c -0.68396,-0.0044 -1.7287,1.466984 -2.90625,3.5625 L 326.5,11.5625 338.1875,13 l -9.46875,8.09375 5.46875,21.21875 c 2.91577,1.55747 5.34167,2.650557 6.03125,2.15625 1.8958,-1.358957 -2.8104,-18.884343 -2.0625,-21.09375 0.74126,-2.1898 15.10659,-13.109271 14.40625,-15.3125 -0.70661,-2.2229562 -18.84859,-3.137211 -20.71875,-4.53125 -1.85356,-1.381668 -7.81319,-18.422726 -10.125,-18.4375 z"
       style="fill:#ffcd07;fill-opacity:1;fill-rule:nonzero;stroke:none"
       inkscape:connector-curvature="0" />
  </g>
</svg>
